<svg width="8" height="13" viewBox="0 0 8 13" fill="none" xmlns="http://www.w3.org/2000/svg">
<path fill-rule="evenodd" clip-rule="evenodd" d="M6.88072 0.81325L1.20372 6.01025L6.87972 11.2063C7.06772 11.3942 7.06772 11.6952 6.87972 11.8822C6.69172 12.0693 6.38972 12.0693 6.20272 11.8822L0.215719 6.40025C0.191719 6.38325 0.158719 6.38925 0.137719 6.36825C0.0387193 6.27025 -0.0052807 6.14025 0.000719301 6.01325C-0.0062807 5.88325 0.0377193 5.75225 0.136719 5.65425C0.158719 5.63125 0.192719 5.63725 0.217719 5.62025L6.20372 0.14025C6.39072 -0.04675 6.69272 -0.04675 6.88072 0.14025C7.06772 0.32525 7.06772 0.62725 6.88072 0.81325Z" fill="#989898"/>
</svg>
